<?xml version="1.0" encoding="UTF-8"?>
<svg version="1.1" viewBox="0 0 2048 2048" width="1280" height="1280" xmlns="http://www.w3.org/2000/svg">
<path transform="translate(469,96)" d="m0 0h23l18 3 16 6 12 6 11 8 12 10v2h2l10 13 8 14 7 16 1 1 116 1 11 4 9 8 5 10 1 3v276h102v-92l2-12 6-10 8-7 7-3 5-1h9l10 3 6 4 8 9 4 13v96h97v-162l-9-2-19-9-10-7-11-9-10-11-7-10-9-17-6-20-2-13v-19l3-18 5-15 8-16 10-14 15-15 10-7 12-7 19-7 16-3h28l16 3 16 6 13 7 11 8 12 11 10 12 9 16 6 15 4 17v32l-4 17-6 16-9 15-7 9-7 8-11 9-14 9-16 7-1 27v136h130l1-97 3-9 6-9 10-7 7-2h10l8 2 9 5 6 7 4 8 1 5v98l108-1 1-273 4-11 6-8 9-6 5-2 45-1h151l3-10 7-14 9-13 9-10 11-10 14-9 15-7 19-5 8-1h23l18 3 19 7 12 7 11 8 12 11 10 13 9 16 6 17 3 14 1 9v13l-3 19-4 14-8 16-6 10-9 11-9 9-14 10-16 8-15 5-16 3h-26l-15-3-15-5-17-9-13-10-12-12-10-14-8-16-4-10h-154l-1 236h39l22 1 14 3 13 5 11 6 13 10 9 9 9 13 8 16 4 15 1 7 1 18h161l2-9 7-16 10-15 9-10 7-7 14-10 16-8 15-5 10-2 10-1h15l16 2 17 5 16 8 13 9 12 11 7 8 10 15 7 16 5 19 1 7v22l-2 14-5 16-7 15-7 11-11 13-10 9-14 9-14 7-21 6-6 1h-29l-15-3-12-4-16-8-13-9-12-11-11-14-8-14-5-12h-162l-1 125h99l9 3 9 7 6 10 2 7v9l-3 10-6 8-6 5-10 4-15 1h-85v140l100-1 4-9 7-16 7-11 8-10 11-11 14-10 16-8 15-5 10-2 11-1h13l17 2 16 5 12 5 14 9 11 9 8 8 11 15 8 16 5 15 3 18v18l-2 16-7 21-8 15-10 13-6 7h-2v2l-13 10-14 8-14 6-16 4-8 1h-25l-20-4-21-9-12-8-13-11-9-10-9-14-7-14-1-5h-104v166h96l9 2 9 6 7 8 3 7 1 5v9l-4 11-9 10-7 4-10 2h-95v125l161-1 7-18 9-16 8-10 7-8 11-9 11-7 14-7 16-5 12-2h23l14 2 17 5 16 8 12 8 12 11 8 9 9 14 8 17 5 20 1 9v15l-2 16-4 15-7 16-10 15-12 13-12 10-16 9-15 6-17 4-10 1h-15l-19-3-18-6-16-9-12-9-13-13-7-10-8-14-4-10v-2l-163 1-1 30-4 18-5 12-8 14-11 13-9 8-13 8-14 6-16 4-7 1h-37v237l30-1 8-19 9-14 9-11 8-8 14-10 17-9 20-6 19-2 20 1 14 3 16 6 15 8 14 11 10 10 11 16 8 16 5 16 2 12v25l-3 17-7 19-9 16-9 11-11 11-16 11-17 8-18 5-16 2h-12l-21-3-15-5-19-10-14-11-9-9-9-12-8-14-5-14v-2h-68l-11-4-8-6-6-10-2-8v-273h-128v97l-3 10-6 8-7 6-8 3h-17l-10-5-7-7-5-10-1-5v-97h-131v164l10 3 16 9 10 8 10 9 11 14 9 16 6 16 3 14 1 11-1 22-4 17-6 15-6 11-8 11-9 10-9 8-15 10-19 8-16 4-8 1h-24l-17-3-16-6-15-8-13-10-13-13-10-15-8-16-5-17-2-12v-23l4-20 6-16 8-14 9-12 13-13 14-10 17-8 9-3h3v-161l-97-1v93l-2 11-6 10-8 7-8 3h-17l-12-6-6-7-4-8-1-3-1-76 1-24h-107v271l-2 9-5 9-8 7-10 4-12 1h-237l-1 7-9 19-12 16-12 12-18 12-16 7-18 5-6 1h-30l-21-5-18-8-12-8-10-9-5-5-9-10-9-15-5-11-4-12-3-16v-24l4-20 7-18 10-16 9-11 8-8 15-11 16-8 15-5 19-3h17l16 2 21 7 18 10 11 9 13 13 10 15 8 17 2 7h208v-236l-98-1-13-2-14-4-16-8-14-11-8-8-10-14-7-15-4-13-2-15v-57h-84l-1 7-9 17-8 11-11 12-13 10-16 9-21 7-10 2-11 1h-13l-19-3-18-6-15-8-12-9-9-8-9-11-9-14-6-13-4-12-3-17v-21l3-18 6-17 8-15 8-11 12-13 13-10 14-8 16-6 14-3 10-1h16l15 2 17 5 17 8 14 10 11 10 11 14 9 16 7 18 80 1v-93h-106l-10-3-8-6-6-9-3-9v-9l3-10 6-8 7-6 7-3 5-1h105l-1-166h-161l-7 15-9 15-11 13-10 9-15 10-16 7-13 4-21 3h-11l-21-3-18-6-15-8-13-10-14-14-9-13-8-16-5-15-3-18v-17l3-19 6-18 8-15 8-11 12-13 13-10 14-8 16-6 14-3 9-1h18l15 2 16 5 9 4 16 9 14 12 10 11 9 14 8 17 3 9 160 1-1-140h-99l-12-2-8-4-8-9-4-8-1-5v-9l4-11 6-8 9-6 6-2h108v-129h-84l-1 7-9 17-8 11-11 12-13 10-16 9-21 7-10 2-10 1h-14l-19-3-18-6-15-8-12-9-9-8-9-11-9-14-6-13-4-12-3-17v-21l3-18 6-17 8-15 8-11 12-13 13-10 14-8 16-6 14-3 10-1h16l16 2 16 5 17 8 14 10 11 10 11 14 9 16 7 18 80 1v-9l3-19 6-16 9-16 12-13 10-9 13-8 13-5 11-3 6-1 22-1h86l-1-236h-79l-1 6-5 12-10 16-11 13-10 9-14 9-15 7-21 6-7 1h-26l-15-3-15-5-19-10-11-9-8-7-11-14-8-14-5-11-5-19-1-6v-26l3-16 6-17 8-15 10-13 14-14 15-10 14-7 17-5zm4 64-10 3-9 5-10 9-6 10-4 11-1 12 2 11 4 10 6 8 5 5 10 7 12 4h18l14-5 11-8 7-9 4-8 3-12v-11l-3-12-6-11-6-7-10-7-11-4-5-1zm543 0-13 4-10 7-8 8-7 14-2 10v10l3 12 6 11 6 7 10 7 10 4 4 1h18l12-4 10-7 8-8 6-12 2-7 1-11-2-12-4-10-7-9-9-8-11-5-8-2zm667 0-13 4-11 7-8 9-6 12-2 7v18l3 9 4 8 9 10 10 7 12 4h18l12-4 11-7 8-9 6-12 2-9v-13l-4-13-5-9-6-7-10-7-11-4-5-1zm-1110 380-12 2-9 5-7 8-4 10-1 12v899l2 10 4 8 4 5 10 6 6 2h915l11-4 8-7 5-9 2-8v-913l-4-10-6-8-10-6-12-2zm-295 17-11 4-10 6-9 10-6 12-2 9v14l4 13 7 11 9 8 12 6 8 2h12l13-3 11-6 6-5 6-8 5-10 2-8v-16l-4-12-6-10-7-7-10-6-7-3-5-1zm1557 3-12 3-11 6-6 5-6 8-5 10-2 8v17l4 12 6 9 9 9 14 7 10 2 14-1 12-4 10-7 9-10 5-11 2-8v-14l-4-13-6-10-9-9-14-7-10-2zm-1631 393-14 3-12 7-9 9-7 14-2 8v15l5 15 8 11 9 7 11 5 8 2h9l14-3 10-5 10-9 7-10 4-13v-17l-4-12-6-9-4-5-10-7-13-5zm1569 0-13 4-11 7-8 9-6 12-2 8v17l4 12 7 10 5 5 5 4 10 5 14 3 12-1 14-5 9-7 8-9 4-8 3-11v-14l-3-11-5-10-8-9-11-7-9-3-5-1zm-1494 388-10 3-10 6-8 7-7 11-3 9-1 5v14l4 13 7 11 9 8 12 6 7 2h12l14-3 11-6 6-5 9-13 4-13v-16l-4-12-7-11-10-9-11-5-8-2zm1552 32-10 3-10 6-10 10-6 12-3 13v8l3 12 5 10 9 10 9 6 10 4 5 1h13l12-3 12-7 8-8 6-10 4-16v-8l-3-13-6-11-7-8-11-7-12-4zm-1489 419-12 3-11 6-7 6-7 10-4 10-1 4v18l4 12 7 11 11 9 8 4 6 2 14 1 14-3 10-5 10-9 6-9 4-11 1-6v-11l-3-12-5-9-9-10-11-7-9-3-7-1zm677 0-13 3-13 8-9 10-5 10-3 12v10l3 12 5 10 9 10 11 7 9 3 6 1h8l14-3 11-6 8-7 6-9 4-10 2-14-2-13-7-14-8-9-9-6-11-4-6-1zm561 0-10 2-9 4-9 6-8 9-5 10-3 13v9l3 13 7 12 8 8 10 6 9 3 7 1h8l13-3 11-6 9-8 7-11 3-10 1-11-2-13-7-14-8-9-9-6-12-4-6-1z" fill="#3485D7"/>
<path transform="translate(1679,96)" d="m0 0h23l18 3 19 7 12 7 11 8 12 11 10 13 9 16 6 17 3 14 1 9v13l-3 19-4 14-8 16-6 10-9 11-9 9-14 10-16 8-15 5-16 3h-26l-15-3-15-5-17-9-13-10-12-12-10-14-8-16-4-10h-154l-1 236h39l22 1 14 3 13 5 11 6 13 10 9 9 9 13 8 16 4 15 1 7 1 18h161l2-9 7-16 10-15 9-10 7-7 14-10 16-8 15-5 10-2 10-1h15l16 2 17 5 16 8 13 9 12 11 7 8 10 15 7 16 5 19 1 7v22l-2 14-5 16-7 15-7 11-11 13-10 9-14 9-14 7-21 6-6 1h-29l-15-3-12-4-16-8-13-9-12-11-11-14-8-14-5-12h-162l-1 125h99l9 3 9 7 6 10 2 7v9l-3 10-6 8-6 5-10 4-15 1h-85v140l100-1 4-9 7-16 7-11 8-10 11-11 14-10 16-8 15-5 10-2 11-1h13l17 2 16 5 12 5 14 9 11 9 8 8 11 15 8 16 5 15 3 18v18l-2 16-7 21-8 15-10 13-6 7h-2v2l-13 10-14 8-14 6-16 4-8 1h-25l-20-4-21-9-12-8-13-11-9-10-9-14-7-14-1-5h-104v166h96l9 2 9 6 7 8 3 7 1 5v9l-4 11-9 10-7 4-10 2h-95v125l161-1 7-18 9-16 8-10 7-8 11-9 11-7 14-7 16-5 12-2h23l14 2 17 5 16 8 12 8 12 11 8 9 9 14 8 17 5 20 1 9v15l-2 16-4 15-7 16-10 15-12 13-12 10-16 9-15 6-17 4-10 1h-15l-19-3-18-6-16-9-12-9-13-13-7-10-8-14-4-10v-2l-163 1-1 30-4 18-5 12-8 14-11 13-9 8-13 8-14 6-16 4-7 1h-37v237l30-1 8-19 9-14 9-11 8-8 14-10 17-9 20-6 19-2 20 1 14 3 16 6 15 8 14 11 10 10 11 16 8 16 5 16 2 12v25l-3 17-7 19-9 16-9 11-11 11-16 11-17 8-18 5-16 2h-12l-21-3-15-5-19-10-14-11-9-9-9-12-8-14-5-14v-2h-68l-11-4-8-6-6-10-2-8v-273h-121l-2-4-1-4 5-11 1-8 2-5h2l-3-6-3-3-1-7-10-3-10-4-1-2 5-2 10-2 12-2 205-1 12-2 10-5 6-7 4-9 1-5v-913l-4-10-5-7-10-6-12-2-208-1-2-4-4 1-2-1v-3l6-4v-4l-4-3 1-7 2-3h2v-2h2l-1-15-3-5v-2h-2l2-4 4-1 9-3 5-2h81l1-275 4-11 6-8 9-6 5-2 45-1h151l3-10 7-14 9-13 9-10 11-10 14-9 15-7 19-5zm4 64-13 4-11 7-8 9-6 12-2 7v18l3 9 4 8 9 10 10 7 12 4h18l12-4 11-7 8-9 6-12 2-9v-13l-4-13-5-9-6-7-10-7-11-4-5-1zm152 400-12 3-11 6-6 5-6 8-5 10-2 8v17l4 12 6 9 9 9 14 7 10 2 14-1 12-4 10-7 9-10 5-11 2-8v-14l-4-13-6-10-9-9-14-7-10-2zm-62 393-13 4-11 7-8 9-6 12-2 8v17l4 12 7 10 5 5 5 4 10 5 14 3 12-1 14-5 9-7 8-9 4-8 3-11v-14l-3-11-5-10-8-9-11-7-9-3-5-1zm58 420-10 3-10 6-10 10-6 12-3 13v8l3 12 5 10 9 10 9 6 10 4 5 1h13l12-3 12-7 8-8 6-10 4-16v-8l-3-13-6-11-7-8-11-7-12-4zm-251 419-10 2-9 4-9 6-8 9-5 10-3 13v9l3 13 7 12 8 8 10 6 9 3 7 1h8l13-3 11-6 9-8 7-11 3-10 1-11-2-13-7-14-8-9-9-6-12-4-6-1z" fill="#B5209A"/>
<path transform="translate(683,627)" d="m0 0h88l623 1 11 4 9 8 5 10 1 5v738l-3 9-6 9-5 4-9 4-8 1h-734l-10-3-8-6-6-8-3-8-1-17v-716l2-13 5-9 9-8 9-4zm10 64-1 1-1 29v635l74 1h588l3-1v-664l-1-1z" fill="#4676CD"/>
<path transform="translate(968,736)" d="m0 0h22l16 3 14 5 5 3 6-1 14-6 12-3 7-1h21l16 3 17 6 21 11 14 10 12 10 16 8 12 8 8 7 9 12 7 14 3 10 1 7v17l3 3 11 7 10 9 8 9 8 14 4 11 3 16v16l-1 5 4 8 6 10 7 16 3 12 1 7v23l-2 15-5 15 1 5 6 16 3 14v24l-4 16-8 16-9 13-4 5-10 8-1 7-2 18-4 16-7 16-7 11-11 12-7 7-15 10-20 9-6 3-10 8-11 7-14 7-18 6-10 2-10 1h-12l-17-3-15-6-16-9-12-10-3-3h-3l-2 4-10 8-13 8-17 7-12 3-18 1-21-3-18-6-17-9-14-10-9-6-16-7-11-6-10-8-10-9-10-13-8-15-5-15-3-17v-13l-6-7-8-7-9-12-9-17-4-15-1-8v-14l3-18 5-14 2-4v-6l-4-11-3-21v-17l3-18 6-16 9-15 2-3v-26l3-15 5-13 7-11 9-11 11-9 10-6 1-1v-14l3-15 6-15 7-11 9-10 12-9 22-12 9-8 18-12 15-8 19-7zm106 64-14 3-1 90v312l1 13 7 11 9 9 9 6 7 3h11l12-3 12-6 9-7 9-8 10-4 12-4 9-5 8-9 4-8 2-8v-37l5-10 9-8 11-7 7-7 5-8v-3l-7 1-18 4-10 1h-10l-10-3-8-6-6-10-2-7v-9l3-10 6-9 9-6 7-2 18-3 9-4 8-5 5-6 2-5 1-6v-8l-3-14-5-4-10-7-6-11-1-5v-11l5-19v-8l-3-8-4-5-11-6-11-3h-12l-9 3-7 8-4 7-3 14-2 12-5 9-2 4-4 2-7 4-9 2h-8l-11-4-7-5-5-8-3-10v-13l3-18 6-17 8-14 10-13 9-9 11-7 19-7 13-3-2-4-6-5-2-1h-7l-8 3-9 7-8 9-8 5-9 2h-8l-10-3-9-6-6-10-2-11 1-10 5-10 11-12v-2zm-98 0 2 4 9 10 5 10 1 13-2 9-7 10-9 6-7 2h-12l-11-4-7-6-7-8-11-7-9-1-10 5-2 4 5 2 18 5 14 7 10 8 7 7 10 14 8 16 5 17 2 12v13l-3 11-6 8-8 6-10 3h-8l-10-3-8-6-6-8-3-9-3-17-4-10-8-9-8-3h-14l-15 5-9 7-3 5-1 5v8l5 21v9l-4 11-8 9-9 5-3 8-1 6v11l3 10 6 7 11 6 8 3 19 3 10 5 6 7 4 9 1 4v10l-4 11-6 8-6 4-11 3h-9l-20-3-12-4h-3l1 5 7 10 7 6 14 9 6 9 3 9v9l-1 7v15l3 12 6 9 8 7 12 6 14 5 10 8 7 6 11 6 11 4 4 1h12l10-5 10-8 7-7 5-9 1-95v-318l-4-3-8-2z" fill="#7A4BB3"/>
<path transform="translate(482,638)" d="m0 0 2 1v2h2v63l1 38v38l1 10 2 4v8l-5 11v6l-5 1 1 6 2 1v2l4 1 2 4v33l-1 16v76l-1 7v12l-1 5 2 3-1 8h2l1 5v8l-2 7-3 9-5 1 3 6 2 2 2-1 2 4v36l-1 15v99l-1 4v14l-2 9h2l1 4-1 6 2 2v9l-3 9-3 3v5l-4 2v4 2l4 2 5 3 1 5-1 39-1 21v18l-3 10v11l-1 12-1 5 1 4-2 5-3 2v3h-2v2l-3 1v-3l-13 3-4-4-22 5-13 4-9 6 3 1 3 2v3l-1 2-2-1v2h-6l-3-2-1 1h-6l-2 4h-5l-1 7-9 17-8 11-11 12-13 10-16 9-21 7-10 2-11 1h-13l-19-3-18-6-15-8-12-9-9-8-9-11-9-14-6-13-4-12-3-17v-21l3-18 6-17 8-15 8-11 12-13 13-10 14-8 16-6 14-3 10-1h16l15 2 17 5 17 8 14 10 11 10 11 14 9 16 7 18 80 1v-93h-106l-10-3-8-6-6-9-3-9v-9l3-10 6-8 7-6 7-3 5-1h105l-1-166h-161l-7 15-9 15-11 13-10 9-15 10-16 7-13 4-21 3h-11l-21-3-18-6-15-8-13-10-14-14-9-13-8-16-5-15-3-18v-17l3-19 6-18 8-15 8-11 12-13 13-10 14-8 16-6 14-3 9-1h18l15 2 16 5 9 4 16 9 14 12 10 11 9 14 8 17 3 9 160 1-1-140h-99l-12-2-8-4-8-9-4-8-1-5v-9l4-11 6-8 9-6 6-2 108-1 1-27 1-100zm-278 315-14 3-12 7-9 9-7 14-2 8v15l5 15 8 11 9 7 11 5 8 2h9l14-3 10-5 10-9 7-10 4-13v-17l-4-12-6-9-4-5-10-7-13-5zm75 388-10 3-10 6-8 7-7 11-3 9-1 5v14l4 13 7 11 9 8 12 6 7 2h12l14-3 11-6 6-5 9-13 4-13v-16l-4-12-7-11-10-9-11-5-8-2z" fill="#258EDE"/>
<path transform="translate(1010,96)" d="m0 0h28l16 3 16 6 13 7 11 8 12 11 10 12 9 16 6 15 4 17v32l-4 17-6 16-9 15-7 9-7 8-11 9-14 9-16 7-1 27v136h130l1-97 3-9 6-9 10-7 7-2h10l8 2 9 5 6 7 4 8 1 5v98h108v1l-81 1-14 5-4 1-2 3h2l4 7 1 12-1 3h-2v2h-2l-2 10 4 3-1 5-4 3h-2l2 4 4-1 2 4h-458l-2-1v-2h-6l-17-5 2-7 3-2-1-4 7-3 3-6 4-2 2 1 2-6-5-5 1-4h3l-4-5 3-3 10-2h11l6-2v-2h3l-1-95 2-12 6-10 8-7 7-3 5-1h9l10 3 6 4 8 9 4 13v96h97v-162l-9-2-19-9-10-7-11-9-10-11-7-10-9-17-6-20-2-13v-19l3-18 5-15 8-16 10-14 15-15 10-7 12-7 19-7zm6 64-13 4-10 7-8 8-7 14-2 10v10l3 12 6 11 6 7 10 7 10 4 4 1h18l12-4 10-7 8-8 6-12 2-7 1-11-2-12-4-10-7-9-9-8-11-5-8-2z" fill="#7A4BB3"/>
<path transform="translate(1048,1507)" d="m0 0h425v1l-205 1-12 2-10 2-4 2 10 4 10 3 2 5v5l3 1 2 3-1 5-3 6-1 8-4 9 1 3 2 2-1 2h-7v97l-3 10-6 8-7 6-8 3h-17l-10-5-7-7-5-10-1-5v-97h-131v164l10 3 16 9 10 8 10 9 11 14 9 16 6 16 3 14 1 11-1 22-4 17-6 15-6 11-8 11-9 10-9 8-15 10-19 8-16 4-8 1h-24l-17-3-16-6-15-8-13-10-13-13-10-15-8-16-5-17-2-12v-23l4-20 6-16 8-14 9-12 13-13 14-10 17-8 9-3h3v-161l-97-1v93l-2 11-6 10-8 7-8 3h-17l-12-6-6-7-4-8-1-3-1-76 1-24h-12l-2-4-5-2-9-1-4-1h-6v-2h-9l-3-3 6-3v-4l5-2 1-3 5-4 7-2 1-3v-3-6l-4-1v-4l-3-3h-2l-1-3 4-3 5-2h10l1-3 6-1zm-29 285-13 3-13 8-9 10-5 10-3 12v10l3 12 5 10 9 10 11 7 9 3 6 1h8l14-3 11-6 8-7 6-9 4-10 2-14-2-13-7-14-8-9-9-6-11-4-6-1z" fill="#7A4BB3"/>
<path transform="translate(575,1507)" d="m0 0h473v1l-223 1-6 1-1 2-10 1-8 5h3v3l3 3-1 3 4 1 1 6v3l-2 4-8 3-4 2-1 5-4 1-1 4-5 3 4 1 7 1v2l9-1 1 1 9 1 6 3v2l2 1-1 1h-95v271l-2 9-5 9-8 7-10 4-12 1h-237l-1 7-9 19-12 16-12 12-18 12-16 7-18 5-6 1h-30l-21-5-18-8-12-8-10-9-5-5-9-10-9-15-5-11-4-12-3-16v-24l4-20 7-18 10-16 9-11 8-8 15-11 16-8 15-5 19-3h17l16 2 21 7 18 10 11 9 13 13 10 15 8 17 2 7h208v-236l-98-1 2-5-7-2-5-3v-2l-3-1-3-5-2-2 3-1-3-4 7 1 2-4 1-1h6v-6l6-4-1-6-4-2-1-5 1-4 7-2 8-1 3-4h-6zm-233 285-12 3-11 6-7 6-7 10-4 10-1 4v18l4 12 7 11 11 9 8 4 6 2 14 1 14-3 10-5 10-9 6-9 4-11 1-6v-11l-3-12-5-9-9-10-11-7-9-3-7-1z" fill="#4775CC"/>
<path transform="translate(469,96)" d="m0 0h23l18 3 16 6 12 6 11 8 12 10v2h2l10 13 8 14 7 16 1 1 116 1 11 4 9 8 5 10 1 3v276h102v-40h1v43l-3 3-6 2h-11l-7 1-5 2v3l3 1v2l-3 1 1 5 4 3-3 6-6 1-1 4-2 3-7 2 2 5-4 2v6l21 5v2l2 1-236 1-12 2-9 5-5 5-3-5v-4h-2l2-12-1-2 3-2v-3l1-5 6-5 2-5h-2l1-5 2-3-5-2 1-7-3-5 7-4h2v-2h3l-3-1 1-4 22-1h86l-1-236h-79l-1 6-5 12-10 16-11 13-10 9-14 9-15 7-21 6-7 1h-26l-15-3-15-5-19-10-11-9-8-7-11-14-8-14-5-11-5-19-1-6v-26l3-16 6-17 8-15 10-13 14-14 15-10 14-7 17-5zm4 64-10 3-9 5-10 9-6 10-4 11-1 12 2 11 4 10 6 8 5 5 10 7 12 4h18l14-5 11-8 7-9 4-8 3-12v-11l-3-12-6-11-6-7-10-7-11-4-5-1z" fill="#4775CD"/>
<path transform="translate(968,736)" d="m0 0h12l1 2-1 2 3 1-3 2 4 3-1 1 3 2h-2l2 5 8 1-2 3h-2v5l8-1 7 8 5 3-1 2-3 1-3 8-9 4v2h-2l-1 4 3 9-18-3 7 8 8 11 2 5 1 13-2 9-7 10-8 6-9 3h-12l-11-4-8-7-6-7-11-7-9-1-10 5-1 3 19 5 14 6 12 9 9 9 10 14 8 16 5 17 2 12v13l-3 11-6 8-7 6-8 3-4 1h-8l-10-3-8-6-6-7-4-11-3-17-4-10-7-8-8-3h-14l-15 5-8 6-3 5-1 5v8l5 21v9l-4 11-9 10-9 5-3 13v11l3 10 5 6 11 6 8 3 19 3 10 5 7 8 4 9 1 4v10l-4 11-6 8-7 5-11 3h-9l-20-3-15-5 5 10 7 8 17 11 6 8 4 11v9l-1 7v15l3 12 6 9 7 6 12 6 14 5 10 8 7 6 11 6 11 4 4 1h12l10-5 10-8 8-9 3-6 1-95h1v92l2 1v2l1 4-2 7-3 7h-2l-1 5 1 5-1 10-3 1v2h5l1 4-2 5-4 2-2 5-6 6 2 2-7 4-1 1 4 2 2 3-2 3 2 1v2h6v2l4-1v-2l5-1 2 1 4-1 1 3-19 8-12 3-18 1-21-3-18-6-17-9-14-10-9-6-16-7-11-6-10-8-10-9-10-13-8-15-5-15-3-17v-13l-6-7-8-7-9-12-9-17-4-15-1-8v-14l3-18 5-14 2-4v-6l-4-11-3-21v-17l3-18 6-16 9-15 2-3v-26l3-15 5-13 7-11 9-11 11-9 10-6 1-1v-14l3-15 6-15 7-11 9-10 12-9 22-12 9-8 18-12 15-8 19-7z" fill="#625FC1"/>
<path transform="translate(1266,628)" d="m0 0h128l11 4 9 8 5 10 1 5v738l-3 9-6 9-5 4-9 4-8 1h-126l-4-5 2-5 1-3-3-3-5-3v-5l7-5 1-2-1-11-5-5-9-3-2-5 9-3 5-2 29-2 68-1-1-665-111-1v-1l25-1v-2l-6-1-5-3v-2l7-4-3-4v-2l-5-2-1-4 7-7-1-6-1-7-12-5v-2l-6-1v-2h-2l1-3 9-2z" fill="#B5209A"/>
<path transform="translate(338,1728)" d="m0 0h17l16 2 21 7 18 10 11 9 13 13 10 15 8 17 2 7 73 1 27 1 28 2 3 2-4 2-19 3-5 2v2l5 2 5 5 6 5-1 4-12 3-9 5 2 3-2 2-1 2-5-1v2l-4 2 10 5 8 1v3l-2 1-9 1-1 2-65 1-29 1-1 7-9 19-12 16-12 12-18 12-16 7-18 5-6 1h-30l-21-5-18-8-12-8-10-9-5-5-9-10-9-15-5-11-4-12-3-16v-24l4-20 7-18 10-16 9-11 8-8 15-11 16-8 15-5zm4 64-12 3-11 6-7 6-7 10-4 10-1 4v18l4 12 7 11 11 9 8 4 6 2 14 1 14-3 10-5 10-9 6-9 4-11 1-6v-11l-3-12-5-9-9-10-11-7-9-3-7-1z" fill="#258EDE"/>
<path transform="translate(198,889)" d="m0 0h18l15 2 16 5 9 4 16 9 14 12 10 11 9 14 8 17 3 9 20 2 21 1 10 3v1l-10 1v2l-6 1 1 4 4 3 13 5v4l-5 4-4 4-10 3-4 3-17 5-10 4-2 2 2 1-1 3h-7l-6 2-4 6h-2l-5 10-3 9 5-1 6-5 3-4 2-7 5 1-3 9-10 18-12 14-10 9-15 10-16 7-13 4-21 3h-11l-21-3-18-6-15-8-13-10-14-14-9-13-8-16-5-15-3-18v-17l3-19 6-18 8-15 8-11 12-13 13-10 14-8 16-6 14-3zm6 64-14 3-12 7-9 9-7 14-2 8v15l5 15 8 11 9 7 11 5 8 2h9l14-3 10-5 10-9 7-10 4-13v-17l-4-12-6-9-4-5-10-7-13-5z" fill="#119AE5"/>
<path transform="translate(980,104)" d="m0 0 1 4-2 1v3h-2v6l-2 3 2 2 1 6-1 3 3 1 2 4 5 1-4 7 4-1-2 6-6 10-3 3-2 8-2 5 1 2 8-2 4-3h2l2-4 5-6 5-2h6l1 3-11 6-9 9-7 14-2 10v10l3 12 6 11 5 6 2 2h-8l-5-5-1 3 1 5h3v2l2 1-1 1 11 6-4 2-5-2-1 2 2 1-1 2 6 3 5 1v3l-3 3 2 4 7 3v5l-7 1-2 5v9l-3 2 1 3 8 6 2 4v9l-2 1-1 3-2 1v111l2 10h1v8l2 7-1 5 1 7 3 8-1 6-2 6h-2v3h4l1 5-5 3-2 6-6 3-1 5 3 1v2l-6 1-1 3-7 2v2h3v2h9l10 1 3 2v3h-196l-2-1v-2h-6l-17-5 2-7 3-2-1-4 7-3 3-6 4-2 2 1 2-6-5-5 1-4h3l-4-5 3-3 10-2h11l6-2v-2h3l-1-95 2-12 6-10 8-7 7-3 5-1h9l10 3 6 4 8 9 4 13v96h97v-162l-9-2-19-9-10-7-11-9-10-11-7-10-9-17-6-20-2-13v-19l3-18 5-15 8-16 10-14 15-15 10-7 12-7z" fill="#625FC1"/>
<path transform="translate(1207,1356)" d="m0 0h149l-2 2-69 1-26 2-13 4 1 5 9 2 5 4 2 7v6l-5 5-3 2-1 5 5 2 4 4-1 4-2 4v2l4 2-1 1h-458l-5-2-4-2-8-3 1-6 5-1-1-4 4-2 5-6 4-2 1-2h2l-3-7-4-4v-3h-6l1-2h2v-2l-4-1v-2l-2-1 4-3h5l-1-3-5-3-15-1v-1z" fill="#7A4BB3"/>
<path transform="translate(816,628)" d="m0 0h450v1h-11l-1 2-10 1-3 3h2v2l6 1v2l5 1 7 3 1 4 2 6-1 5-5 4-1 5 5 3 4 7-6 3h-2l2 2 5 3 4 1 1 3-26 1h-458l-1-2-4-1 6-1v-2l-3-1-1-2-4-2v-3l15-6-1-3 6-6-1-4 5-1-2-2-1-9 1-3-5-4v-3l3-3 7-1 5-2z" fill="#7A4BB3"/>
<path transform="translate(469,96)" d="m0 0h23l18 3 16 6 12 6 11 8 12 10v2h2l10 13 8 14 7 16 1 3-5 1-6-1v2l-7 2 1 2h-2l1 3-4 3 1 3v7h-5l-2 5-2 1-3 10h-2l-1 9-3 5-1 8-6 2v8l-2 8 2 2-2 10-4 8v3l3 1 2 2v2l2 2-1 2 5-3v2l5-4 6-3h2v-3h2l2-4 6-10 3-1 1-4 5 1-3 7-9 13-12 13-13 10-19 10-20 6-11 2h-26l-15-3-15-5-19-10-11-9-8-7-11-14-8-14-5-11-5-19-1-6v-26l3-16 6-17 8-15 10-13 14-14 15-10 14-7 17-5zm4 64-10 3-9 5-10 9-6 10-4 11-1 12 2 11 4 10 6 8 5 5 10 7 12 4h18l14-5 11-8 7-9 4-8 3-12v-11l-3-12-6-11-6-7-10-7-11-4-5-1z" fill="#3386D8"/>
<path transform="translate(279,1276)" d="m0 0h16l15 2 17 5 17 8 14 10 11 10 11 14 9 16 5 13v4l-2 1 3 4v2l-3 1-4-2-3-4h2l-3-4-2-5-3-5-2-6-4-4v-2l-4 1 2 6-4-1 4 10v2l-5-2-12-9-2-1 1 5-1 5h-2l-1 5-2 1 4 9-1 3 1 24-3 14-8 13 1 19-4 10-4 9-10 7-2 3 1 2-5 2-2 4-8 2-5-1-6 2-3-1-21 7v3l14 3 4 2-1 1h-5v2h-7v2l-13 1-17-5-17-8-14-10-5-4-7-8-8-9-9-15-5-11-4-12-3-17v-21l3-18 6-17 8-15 8-11 12-13 13-10 14-8 16-6 14-3zm0 65-10 3-10 6-8 7-7 11-3 9-1 5v14l4 13 7 11 9 8 12 6 7 2h12l14-3 11-6 6-5 9-13 4-13v-16l-4-12-7-11-10-9-11-5-8-2z" fill="#119AE5"/>
<path transform="translate(279,492)" d="m0 0h16l16 2 16 5 17 8 14 10 11 10 11 14-1 2-5-2-2-1-1-1v-3l-3-3-1-3-4-1-1-3-11-1h-2l2 5 6 3-1 3 8 1 5 2-3 3h-4l2 7v3l2 7-5-3-6-5 3 7-5-2-7-1 1 2v6l-4 1 3 8 4 5-1 9 1 16-2 4v8l1 3-4 8-3 7 2 4-1 1v11l-4 13h-2l-2 5-2 8-8 5h-2l-1 3 2 2-6 4h-2v2l-8 3h-7l-5 1-11 2-11 4h-5l1 3 15 3-1 3-5 1h-5v2l-8 1-10-1-16-6-13-7-12-9-9-8-9-11-9-14-6-13-4-12-3-17v-21l3-18 6-17 8-15 8-11 12-13 13-10 14-8 16-6 14-3zm-1 65-11 4-10 6-9 10-6 12-2 9v14l4 13 7 11 9 8 12 6 8 2h12l13-3 11-6 6-5 6-8 5-10 2-8v-16l-4-12-6-10-7-7-10-6-7-3-5-1z" fill="#119AE5"/>
<path transform="translate(825,1508)" d="m0 0h195l1 2-7 3h-5v2l-5 5 4 1 2 1v2h7v8h2l-1 2-3-2v3l2 3-1 7-6 12-7 1v4l3 3v5l-2 1-1 8h-2l-1 5-3-1-1 143h-1v-154l-97-1v93l-2 11-6 10-8 7-8 3h-17l-12-6-6-7-4-8-1-3-1-76 1-24h-12l-2-4-5-2-9-1-4-1h-6v-2h-9l-3-3 6-3v-4l5-2 1-3 5-4 7-2 1-3v-3-6l-4-1v-4l-3-3h-2l-1-3 4-3 5-2h10l1-3z" fill="#625FC1"/>
<path transform="translate(315,1732)" d="m0 0h4v3l-4 1-5 5h-2l-2 4-6 5-1 3 4-2 3 1 4-2 7-1 5-3 5 1-1 5 2 4 4 2 1 4h3l-2 6-5 5-7 4v2l2 2h-2v2l-7 2-3 3h-4l-1 7-4 1-2 5-6 11h5l2 2 2-5 4-6 8-5 5 1v2l-8 6-7 10-4 10-1 4v18l4 12 7 11 10 8 8 4 6 2 14 1 14-3 10-5 10-9h3l-1 5-4 2v2l-2 2-6 7-3 3-7 4-13 3-4 6-6 3-2 7-1 4-8 5h-3l-1 3-8 4v3l-10-2v4l3 2v2l6 1 5 5 1 4-13-3-18-8-12-8-10-9-5-5-9-10-9-15-5-11-4-12-3-16v-24l4-20 7-18 10-16 9-11 8-8 15-11 16-8z" fill="#119AE5"/>
<path transform="translate(508,501)" d="m0 0 2 3-3 3-3 7-4 6-2 9-3 3-1 5 1 5-5 11-2 26-2 8v7l-3 11-5 5v4l-7 5-9-1-2-3h-4v-2l-9 3-21 5-10 3-5 1-1 3 6 2v1l5 1v2h-4l-1 3h-6l-2-1v-2h-3v2h-6l-1 4h-6l-1 7-9 17-8 11-11 12-13 10-16 9-21 7-10 2-10 1h-14l-15-2 3-2h7v-2l8-1-1-2-11-3-1-4-2-1h7l15-5 10-1 6-1 11-2v-2l7-4-2-2 4-4 6-4h2l1-8 3-5h2l2-10 1-7v-7l1-2-2-4 4-9 4-7-2-1v-8l2-4-1-21v-2h2l-4-6-2-2-2-8h5l-1-8h7l3 1-2-6 6 4 5 4-3-8 1-3-1-5 5-2-6-3-5-1-2-4-5-2v-5l7-1 6 2 3 3 4 2v4l3 1v2l2 1 1 1 7 4 8 15 6 16 80 1v-9l3-19 6-16 9-16 12-13z" fill="#258EDE"/>
<path transform="translate(816,628)" d="m0 0h207l-4 1-1 2-17 5 1 3v3l-3 1v6h2l1 6-4 2v3l-3 3 3 3-5 5-5 3-4 2h-6l1 3 8 5 9 2v2l4-1 13 2v1l-6 1h-221l-1-2-4-1 6-1v-2l-3-1-1-2-4-2v-3l15-6-1-3 6-6-1-4 5-1-2-2-1-9 1-3-5-4v-3l3-3 7-1 5-2z" fill="#625FC1"/>
<path transform="translate(781,1357)" d="m0 0h226l-3 3-9 1-5 3-4 1 2 3 6 2 1 3-1 6 3-1 4 2 3 5-2 5-2 4-2 1-1 6-2 3-3 1-1 2-8 3 3 2-1 1 8 2v2h5v3h-193l-5-2-4-2-8-3 1-6 5-1-1-4 4-2 5-6 4-2 1-2h2l-3-7-4-4v-3h-6l1-2h2v-2l-4-1v-2l-2-1 4-3h5l-1-3-5-3-15-1z" fill="#635EC0"/>
<path transform="translate(437,104)" d="m0 0 4 1-2 4-3 5-4 2-2 4-3 3 2 1h3v3l9 1 5-3 6 1 4 2 1 5-3 6-7 6h-5l-1 5-7 9-5 8-3 14 2 4 3-1h2l-1-4 5-3 6-5 5 1-6 8-6 13-2 16 2 11 4 10 6 8 2 4 4 2 8 5 12 4h21v3h-2v3h2v2h-9l-1 2h-7v3l-4 3h-2v2h-2l-1 6-3 5-7 5h-5v2l-13 4-7 1 1 4 5 2 9 5v2l10 2 1 2-1 2-4-1 1 3-12-3-19-9-10-7-14-12-11-14-8-14-5-11-5-19-1-6v-26l3-16 6-17 8-15 10-13 14-14 15-10z" fill="#258EDE"/>
<path transform="translate(992,1733)" d="m0 0h2l-3 10-4 1-1 1-3-1-1 7v4 7h4l-1 3-5 1v6l4 1v4l-4 7v3l-5 8-2 3 2 2-5 9-2 3-1-1-1 4h2l-1 8 2 2h2l2-5 1-2 4 1 2 4-3 12v10l3 12 5 10 9 10 10 6 3 2-9 1h-6l-1 5 2 1-3 2-3 1 5 8v2l5 1v3l-5 1-2 3h-3l-1 2-3-1-2 3-2 2-4 1 4 4-6-1 1 3-5 1 1 3 5 3v2l2 2 2 4-3 1-13-7-13-10-13-13-10-15-8-16-5-17-2-12v-23l4-20 6-16 8-14 9-12 13-13 14-10 17-8z" fill="#625FC1"/>
<path transform="translate(157,900)" d="m0 0 5 1v2h-2l-2 4-2 1v3l-2 3h3v2l3 2-3 2v4l-4 4v4l1 6v9l-5 5v3l6 1-3 5 2 1-1 5 3-1-1 9 1 2h7l2 1-1 5-3 11v15l5 15 8 11 8 6 11 5 5 2 1 5-1 1h-9l-11-3-6-4-3-1-1 2-1 1 3 10-8-1v3h-3l2 9 1 4h2l2 5 1 6 2 1 1 6v3l2 5 7 4v5l-12-3-16-8-11-7-12-11-8-8-9-13-8-16-5-15-3-18v-17l3-19 6-18 8-15 8-11 12-13 13-10z" fill="#06A8EE"/>
<path transform="translate(879,969)" d="m0 0h15l10 4 9 8 7 10v2l5 2 7 3h11l4-1h11l11 4 10 9 4 8 2 7v7l-4 13-9 10-8 4-16 4h-22l-16-4-12-5-11-6-11-9-9-10-8-13-4-11v-8l3-10 5-8 7-6z" fill="#625FC1"/>
<path transform="translate(1165,969)" d="m0 0 12 1 10 5 5 4 5 8 3 10v9l-3 10-9 14-11 12-10 8-16 8-13 4-6 1h-26l-13-3-9-5-8-9-4-10v-12l4-11 9-10 10-5 11-1 7 1h11l10-5 6-8 7-8 9-6z" fill="#7A4BB3"/>
<path transform="translate(1149,1110)" d="m0 0h10l8 2 8 5 7 8 4 10v14l-5 15-6 12-8 11-12 12-13 8-16 7-13 3h-16l-11-4-7-6-6-11-1-4v-11l3-10 6-9 11-7 6-2 12-2 6-4 6-10 5-12 7-8 8-5z" fill="#7A4BB3"/>
<path transform="translate(897,1110)" d="m0 0h8l10 3 8 6 6 7 8 18 3 3v2l9 3 14 3 10 6 6 7 4 10v14l-4 10-7 8-8 5-8 2h-12l-17-4-19-9-10-8-3-2v-2l-4-2-10-13-9-19-3-11v-10l4-11 7-9 8-5z" fill="#625FC1"/>
<path transform="translate(649,629)" d="m0 0 6 1-1 6-9 8-2 4-1 10-3 8v10l-2 7v24l-1 26v32l-1 6v44l1 138v234l-1 76v26l-1 65v23l1 7 4 13 5 9-1 2h2v2l5 2v2l5-1 2 2 7 2v2h8v1h-17l-10-3-8-6-6-8-3-8-1-17v-716l2-13 5-9 9-8z" fill="#417FD6"/>
<path transform="translate(458,1808)" d="m0 0 69 1 27 1 28 2 3 2-4 2-19 3-5 2v2l5 2 5 5 6 5-1 4-12 3-9 5 2 3-2 2-1 2-5-1v2l-4 2 10 5 8 1v3l-2 1-9 1-1 2-65 1-29 1-1 5-4-1-6 7-5 10-2 6-6 3h-6v-2l-2-1 3-4-4 1 4-7h2l1-6 3-6 4-6 5-5h2l1-5 5-5 5-4 11-4 8-4 15-6-2-4v-4l-3-1-2-7v-4l7-1 2 1v-3l-10-2-16-2-5-1z" fill="#3386D8"/>
<path transform="translate(662,1573)" d="m0 0 4 1 3 7v14l-1 4 1 13-1 9v14l1 12-1 6v23l1 14v62l-1 12v8l1 6-1 6-1 13-3 11-2 4-5 1-1 2-5 1h-7l-9 1-17 1-11 1-1 4 1 3 5 1 1 7-1 2 3 1v2l-8 4-5 2v4h-2v2h2l2 7 12 2 3 3 5 2 4-1v2l-3 2 3 1-1 1h-80l1-3 9-1 2-2-8-1-11-5 3-3h2v-2h5l1-4-2-2 11-6 12-3-1-4-9-7-3-3-2-1v-2l5-3 19-3 3-1-2-1-28-2-27-1-68-1v-1h203z" fill="#427ED5"/>
<path transform="translate(833,437)" d="m0 0h1v43l-3 3-6 2h-11l-7 1-5 2v3l3 1v2l-3 1 1 5 4 3-3 6-6 1-1 4-2 3-7 2 2 5-4 2v6l21 5v2l2 1h-54l-3-2h-7l-1-1-22-2-9-3-2-5 4-3 5-1-1-5 1-1h10l5-5v-2l5-1-2-10-1-2 2-4h-2v-2l-4-2-2-8 3-3v-1h99z" fill="#516ECA"/>
<path transform="translate(697,1356)" d="m0 0h68l31 2 5 1v2l4 2h-3v2l-6 2-1 4 4 1v2l-2 1 5 1 2 5 4 4 1 5h-2l-2 4-5 3-5 5h-2l2 4-1 1h-5l1 4-1 1 7 3 6 1-1 2 4 2h-48l-3-1v-2h-7l-2-1h-10v-1l-9-1-2-1v-2l-2 2h-3l-2-4 1-2h2v-2l5-1-1-4 4-3h3l1-3 5-3h3l-1-4-2-2-2-11-7-2v-2h-3l1-4h5v-2l10-1-1-3h-6v-2l-37-1z" fill="#526DC9"/>
<path transform="translate(756,1508)" d="m0 0h69v1l-6 1-1 2-10 1-8 5h3v3l3 3-1 3 4 1 1 6v3l-2 4-8 3-4 2-1 5-4 1-1 4-5 3 4 1 7 1v2l9-1 1 1 9 1 6 3v2l2 1-1 1h-84l-2-1-3-6-4-2 1-9 5-4 3-8 8-3v-3l-5-2 1-5-2-1-1-5-3-1v-5l4-2 16-3z" fill="#516ECA"/>
<path transform="translate(581,176)" d="m0 0 6 1 2-1h23l-3 1-2 6h-2l1 4h-2l1 4 4 2v2h2l2 8-6 5-8 1-3 1-2 4-4 2-2 4-3 1-1 3 3 1v3l3 1v9l-1 2h-2l-1 6-5 12-6-1-1 4-3 2-5 9-3 4h-2v3l-9 5-4 2h-2l-3 1-2-6-6-3 4-9 3-9-1-4-1-3 2-7 1-7 4-1 2-9 3-5 2-9h2l2-10 3-1 2-5 4-1v-8-3l3-2v-4-1l8-1v-2z" fill="#417FD6"/>
<path transform="translate(754,628)" d="m0 0h62l-3 3-4 1-5 2h-5v2l-2 1 2 4 3 3-1 5 1 6 2 2-5 2v4l-5 6v3l-12 5-2 1 1 2 3 2 3 3v2l-2 1 1 3h-68v-1l7-2 2-3h-9v-2h-2v-2l-2-1 2-7 4-2 3 1-1 3 6-3 2-2-2-2 3-3h3v-2l2-1 1-3 4-1 2 1 1-5-2-5-2-1v-5l-5-2 1-3-1-3h4v-2l14-2z" fill="#526DC9"/>
<path transform="translate(575,1507)" d="m0 0h473v1h-408v3l-17 1v2l-16 1-1 3-2 1v4l7 2v2l5 1 2 4-9 3-5 8-6 2-6 4v4l5 5 7 2 8 1 5 3 11 1 4 1h21v4h10l-1 2-98-1 2-5-7-2-5-3v-2l-3-1-3-5-2-2 3-1-3-4 7 1 2-4 1-1h6v-6l6-4-1-6-4-2-1-5 1-4 7-2 8-1 3-4h-6z" fill="#427ED5"/>
<path transform="translate(581,476)" d="m0 0h86l-2 3-4 3h-3v2h-22l-39 2-3 1-9 1 4 5 8 1 4 3 4 1 1 7-3 5h-5v2l-3 2-2 2-6 1-5 3-1 2 5 1-2 5 1 3-1 1 15 1 13 1 4 3-1 3-42 1-12 2-9 5-5 5-3-5v-4h-2l2-12-1-2 3-2v-3l1-5 6-5 2-5h-2l1-5 2-3-5-2 1-7-3-5 7-4h2v-2h3l-3-1 1-4z" fill="#427ED5"/>
<path transform="translate(1273,1062)" d="m0 0 7 1 3-1 5 14 3 14v24l-4 16-8 16-9 13-4 5-3 1h-4l-5-2 2-1-1-3 2-5 3-4 2-3 2-2-1-1v-14l2-4v-9l-3-12-1-19 5-1 2 1 3-3v-16z" fill="#B3219B"/>
<path transform="translate(790,911)" d="m0 0 1 3 2 1v8l-2 9 1 3v8h-2l1 9h-2l1 7-5 9h-2l-2 9-3 7-1 18-2 9-1 2 2 9 1 6 1 5-1 5 4 9 1 8-1 5-1 9-4 7-4 9v6l-2 1 1 1 1 14 2 6v6l2 8 4 7 1 7h2l3 7 10 15 2 1 2 6h-3l-11-10-9-13-8-15-4-15-1-8v-14l3-18 5-14 2-4v-6l-4-11-3-21v-17l3-18 6-16 9-15 2-3v-26z" fill="#516ECA"/>
<path transform="translate(1273,963)" d="m0 0h2l8 17 4 15 1 7v23l-2 15-4 13h-4l-6 6-4-3-2-2v-7l3-1 4 2-1-8-4-2v-6l-3-1-1-2v-13l3-3 3-5 2-2-3-7 1-11-2-9 3-7z" fill="#B2229B"/>
<path transform="translate(480,1426)" d="m0 0h2l2 7-1 8v23l-1 4 1 15 3 16 4 8 3 9h2l6 9 7 11 3 4v2l6 3v2h2l2 4h3l1 3 7 3 6 5 5 1v3l-6-1-16-8-14-11-8-8-10-14-7-15-4-13-1-9 1-56z" fill="#258EDE"/>
<path transform="translate(177,1371)" d="m0 0 3 1 1 21 5 14 1 12 16 32 4 6 16 16 8 6v5l-5-2-11-8-9-8-9-11-9-14-6-13-4-12-3-17v-21z" fill="#07A7EE"/>
<path transform="translate(177,587)" d="m0 0 2 1 2 15 1 10 4 10 1 12 16 32 4 6 21 21 2 3-1 2-5-2-10-8-8-7-9-11-9-14-6-13-4-12-3-17v-21z" fill="#07A7EE"/>
<path transform="translate(667,240)" d="m0 0h1l1 14 1 4-1 6v16l2 31v87l1 7h-2l2 8-1 4v15l1 7v18l-3 12-1 7h-1z" fill="#417FD6"/>
<path transform="translate(345,1227)" d="m0 0h2l2 6h2l2-3 3 4 2 10 3 9 5 5 4 3-2 5-5-1-9-5-8-11-3-9v-9z" fill="#129AE5"/>
<path transform="translate(344,793)" d="m0 0 1 3 2 1 2 5 3-1 2-5h2l2 4v9l3 11 3 4 2 2 1 2 4 1 4 2v1h-8l-9-4-8-7-6-11-1-5v-9z" fill="#129AE5"/>
<path transform="translate(283,503)" d="m0 0h22l11 4 6 2 7 3 5 1 1 4-4-1 2 5-5-1-8-3-9-3-12-5-10-1-6-1v-1l4-1z" fill="#258FDF"/>
<path transform="translate(381,1799)" d="m0 0 7 6v2h2v2h2l5 10 2 9h-2l1 11h-2l-1 2-3-16-6-12-7-8v-5z" fill="#1399E5"/>
<path transform="translate(290,1285)" d="m0 0h10l13 4 5 2 13 6v2l-14-3-10-2-11-4-3-2-6-1z" fill="#258FDF"/>
<path transform="translate(385,259)" d="m0 0 2 4 4 2 5 6 3 4v2l5 5 2 4 5 5v3l-4-2-8-7-11-14 1-5h-2l-3-6z" fill="#1499E4"/>
<path transform="translate(998,804)" d="m0 0 4 2 2 6-4 14h-4v-21z" fill="#635FC1"/>
<path transform="translate(336,700)" d="m0 0h7l-3 3-14 6-13 4h-4l-1-3 7-3 12-3 7-2z" fill="#1399E5"/>
<path transform="translate(337,1485)" d="m0 0 4 1-12 6-16 5h-5v-4l18-4 5-2z" fill="#1499E4"/>
<path transform="translate(505,248)" d="m0 0 3 1-1 5-7 5-3 1-1 2h-2l-1-2h-2l1-5 5-3z" fill="#3287D8"/>
<path transform="translate(279,1276)" d="m0 0h16l10 1-1 2-8 1h-15l-12-1v-2z" fill="#268EDE"/>
<path transform="translate(278,544)" d="m0 0h8l13 2 7 2v2l2 1-4 1-5-1-11-2v-2h-6v-2z" fill="#248FDF"/>
<path transform="translate(530,201)" d="m0 0 2 1-1 5h2l1 4-1 3-1 7-3 2-4 7-1-3 3-8z" fill="#278DDE"/>
<path transform="translate(1275,1141)" d="m0 0h3l-1 4 2 1-6 9-3-1-1-2v-7l2-2z" fill="#784DB4"/>
<path transform="translate(184,1343)" d="m0 0 3 1v5l-3 6-1 6-3 1-1-5z" fill="#0EA1EA"/>
<path transform="translate(186,559)" d="m0 0h1v6l-3 6-1 6-4 1 1-9 3-8z" fill="#0DA1EA"/>
<path transform="translate(279,492)" d="m0 0h16l6 1v1l-14 1h-15l-3-2z" fill="#258EDE"/>
<path transform="translate(433,1771)" d="m0 0 4 2 6 9v4l-4-2-1-2-3-1v-4l-2-2z" fill="#1499E4"/>
<path transform="translate(279,1328)" d="m0 0 9 1 9 2 4 1-1 3-12-2-4-2v-2l-6 1z" fill="#258FDF"/>
<path transform="translate(165,1024)" d="m0 0 3 3 6 8 8 6 2 2-5-1-8-6v-2h-2l-4-8z" fill="#1697E4"/>
<path transform="translate(505,248)" d="m0 0 3 1-1 5-7 5-3 1-1 2h-2l1-4 8-5 1-2-2-1z" fill="#268EDE"/>
<path transform="translate(523,230)" d="m0 0 3 3-2 4-1 3-7 1z" fill="#268EDE"/>
<path transform="translate(358,1312)" d="m0 0 7 4 2 4-3 1-5-3-4-4z" fill="#258FDF"/>
<path transform="translate(462,251)" d="m0 0 10 3-2 3-5 2-4-3-1-4z" fill="#3386D8"/>
<path transform="translate(990,794)" d="m0 0 3 4 1 5-9-2 2-4z" fill="#6160C2"/>
<path transform="translate(375,243)" d="m0 0h3l3 6 1 4-2 1-3-3-2-5z" fill="#1598E4"/>
<path transform="translate(521,181)" d="m0 0h5l3 2-1 6-1-2-3 1z" fill="#268DDE"/>
<path transform="translate(985,791)" d="m0 0 3 1v2h2l-1 3-5 2-1-4z" fill="#7A4BB3"/>
<path transform="translate(506,163)" d="m0 0 5 3 2 2v3l-4-2-5-4z" fill="#258FDF"/>
<path transform="translate(307,1038)" d="m0 0 5 1-1 5h-3l-3 1z" fill="#1797E3"/>
<path transform="translate(181,1354)" d="m0 0 3 1-1 6-3 1-1-5z" fill="#07A7EE"/>
<path transform="translate(181,570)" d="m0 0 3 1-1 6-4 1 1-7z" fill="#07A7EE"/>
<path transform="translate(737,1565)" d="m0 0 5 1 1 3 3 1h-8z" fill="#4776CD"/>
</svg>
